<svg width="500" height="300" viewBox="0 0 500 300" fill="none" xmlns="http://www.w3.org/2000/svg">
<rect width="500" height="300" fill="white"/>
<path d="M97.4541 139.322C91.9362 115.008 80.4353 108.535 77.5016 103.96C76.2918 101.944 75.2201 99.8488 74.2939 97.6884C74.1389 99.8484 73.8542 101.209 72.0161 102.847C68.3254 106.134 52.651 118.892 51.3319 146.519C50.1029 172.277 70.2897 188.16 72.9568 189.802C75.0075 190.81 77.5052 189.823 78.7234 188.898C88.4546 182.227 101.75 164.443 97.4649 139.322" fill="#10AA50"/>
<path d="M75.13 176.086C74.6218 182.461 74.2578 186.166 72.9675 189.809C72.9675 189.809 73.8145 195.878 74.4092 202.308H76.514C77.0161 197.78 77.7827 193.286 78.8098 188.848C76.0851 187.508 75.2345 181.68 75.13 176.086Z" fill="#B8C4C2"/>
<path d="M78.8062 188.851C76.0526 187.58 75.2561 181.63 75.1336 176.086C75.8145 166.94 76.013 157.766 75.7282 148.6C75.5841 143.79 75.7967 104.053 74.5425 98.2356C75.4004 100.206 76.389 102.117 77.5015 103.956C80.4352 108.535 91.9397 115.008 97.454 139.322C101.75 164.4 88.5265 182.137 78.8062 188.851Z" fill="#12924F"/>
<path d="M441.743 180.06C440.564 180.06 439.411 179.712 438.43 179.059C437.448 178.406 436.682 177.478 436.227 176.392C435.772 175.305 435.649 174.109 435.873 172.953C436.097 171.796 436.659 170.732 437.486 169.894C438.314 169.055 439.372 168.48 440.526 168.24C441.681 168.001 442.88 168.107 443.974 168.546C445.068 168.986 446.008 169.738 446.674 170.71C447.341 171.681 447.706 172.827 447.722 174.005C447.744 174.799 447.604 175.589 447.312 176.328C447.02 177.067 446.582 177.739 446.024 178.305C445.465 178.87 444.798 179.317 444.063 179.619C443.327 179.92 442.538 180.071 441.743 180.06ZM441.743 168.655C440.666 168.648 439.61 168.96 438.711 169.553C437.812 170.145 437.109 170.991 436.691 171.983C436.273 172.974 436.159 174.068 436.364 175.124C436.569 176.181 437.083 177.153 437.841 177.917C438.599 178.681 439.567 179.204 440.623 179.418C441.679 179.633 442.774 179.529 443.771 179.121C444.768 178.713 445.621 178.018 446.222 177.125C446.824 176.233 447.146 175.182 447.149 174.106C447.163 173.39 447.033 172.679 446.767 172.015C446.501 171.351 446.104 170.747 445.6 170.238C445.096 169.73 444.495 169.328 443.832 169.056C443.17 168.784 442.459 168.648 441.743 168.655ZM443.184 177.864L441.642 174.541H440.398V177.864H439.494V170.304H441.725C443.386 170.304 444.078 171.024 444.078 172.417C444.078 173.526 443.556 174.217 442.583 174.43L444.176 177.853L443.184 177.864ZM440.435 173.76H441.743C442.802 173.76 443.206 173.4 443.206 172.435C443.206 171.47 442.82 171.143 441.628 171.143H440.435V173.76Z" fill="#21313C"/>
<path d="M352.753 174.617C354.371 175.909 357.604 176.442 360.455 176.442C364.149 176.442 367.772 175.758 371.311 172.565C374.915 169.292 377.395 164.285 377.395 156.289C377.395 148.607 374.468 142.372 368.464 138.721C365.076 136.594 360.686 135.755 355.68 135.755C354.238 135.755 352.753 135.83 351.91 136.212C351.564 136.485 351.319 136.865 351.214 137.292C351.063 138.66 351.063 149.078 351.063 155.238C351.063 161.552 351.063 170.358 351.214 171.438C351.293 172.352 351.755 173.958 352.753 174.631M337.385 132.335C338.693 132.335 343.667 132.562 345.981 132.562C350.306 132.562 353.294 132.335 361.378 132.335C368.154 132.335 373.855 134.16 377.932 137.656C382.862 141.918 385.5 147.847 385.5 155.072C385.5 165.34 380.815 171.272 376.104 174.617C371.419 178.116 365.324 180.092 356.642 180.092C352.021 180.092 344.089 179.941 337.468 179.866H337.331C337.021 179.257 337.897 176.885 338.437 176.824C340.239 176.622 340.715 176.55 341.544 176.208C342.943 175.636 343.271 174.923 343.426 172.414C343.656 167.698 343.581 162.071 343.581 155.681C343.581 151.12 343.656 142.22 343.505 139.405C343.271 137.051 342.276 136.442 340.261 135.985C338.832 135.682 337.389 135.454 335.936 135.301C335.785 134.844 336.967 132.781 337.353 132.335" fill="#21313C"/>
<path d="M404.584 136.194C404.278 136.27 403.892 137.033 403.892 137.411C403.813 140.15 403.737 147.296 403.737 152.239C403.757 152.334 403.804 152.42 403.873 152.488C403.941 152.556 404.028 152.602 404.123 152.621C405.121 152.696 407.587 152.776 409.666 152.776C412.593 152.776 414.287 152.394 415.209 151.937C417.675 150.72 418.813 148.056 418.813 145.169C418.813 138.552 414.193 136.043 407.342 136.043C406.415 136.031 405.489 136.082 404.57 136.194M422.05 166.614C422.05 159.922 417.12 156.12 408.109 156.12C407.727 156.12 404.865 156.044 404.184 156.196C403.954 156.271 403.723 156.422 403.723 156.577C403.723 161.369 403.644 169.048 403.878 172.09C404.033 173.382 404.959 175.207 406.109 175.74C407.342 176.424 410.113 176.575 412.038 176.575C417.35 176.575 422.05 173.612 422.05 166.614ZM390.672 132.468C391.368 132.468 393.415 132.695 398.652 132.695C403.579 132.695 407.583 132.544 412.348 132.544C418.276 132.544 426.436 134.675 426.436 143.495C426.436 147.815 423.358 151.328 419.354 153.002C419.123 153.078 419.123 153.229 419.354 153.305C425.052 154.745 430.055 158.248 430.055 164.94C430.055 171.481 425.975 175.589 420.046 178.174C416.442 179.772 411.962 180.301 407.432 180.301C403.968 180.301 394.684 179.941 389.523 179.999C388.982 179.772 390.016 177.335 390.478 176.957C391.66 176.921 392.833 176.737 393.97 176.41C395.816 175.956 396.035 175.362 396.266 172.622C396.421 170.264 396.421 161.822 396.421 155.814C396.421 147.599 396.5 142.051 396.421 139.312C396.345 137.184 395.574 136.496 394.111 136.118C392.957 135.888 391.033 135.661 389.494 135.434C389.108 135.053 390.294 132.77 390.676 132.468" fill="#21313C"/>
<path d="M114.505 180.06C114.307 179.573 114.227 179.046 114.271 178.523C114.254 178.166 114.335 177.811 114.505 177.497C115.501 177.353 116.488 177.153 117.461 176.896C118.823 176.557 119.335 175.816 119.414 174.08C119.637 169.98 119.652 162.287 119.573 156.88V156.721C119.573 156.138 119.573 155.346 118.852 154.788C117.585 153.994 116.209 153.388 114.768 152.988C114.123 152.797 113.766 152.459 113.784 152.063C113.802 151.667 114.21 151.199 115.049 151.033C117.28 150.806 123.126 149.413 125.422 148.355C125.659 148.663 125.768 149.049 125.728 149.435C125.728 149.672 125.692 149.924 125.667 150.184C125.602 150.947 125.53 151.814 125.53 152.678C125.544 152.783 125.588 152.882 125.655 152.964C125.722 153.046 125.811 153.107 125.912 153.141C126.012 153.175 126.12 153.181 126.223 153.157C126.326 153.133 126.421 153.081 126.496 153.006C130.868 149.582 134.786 148.362 136.793 148.362C140.098 148.362 142.672 149.939 144.665 153.186C144.71 153.264 144.775 153.33 144.854 153.376C144.932 153.422 145.021 153.447 145.112 153.449C145.194 153.448 145.275 153.427 145.348 153.388C145.421 153.35 145.483 153.294 145.53 153.226C149.548 150.18 153.531 148.362 156.198 148.362C162.498 148.362 166.264 153.074 166.264 160.962C166.264 163.23 166.243 166.106 166.221 168.788C166.203 171.143 166.185 173.35 166.185 174.876C166.185 175.236 166.682 176.273 167.428 176.478C168.351 176.928 169.681 177.158 171.364 177.446H171.429C171.555 177.9 171.288 179.66 171.032 180.02C170.614 180.02 170.038 179.984 169.317 179.948C168.009 179.884 166.214 179.794 164.127 179.794C159.939 179.794 157.751 179.873 155.661 180.01C155.502 179.488 155.448 177.803 155.639 177.45C156.505 177.315 157.362 177.128 158.205 176.892C159.539 176.453 159.925 175.848 160.007 174.08C160.04 172.824 160.281 161.754 159.852 159.126C159.456 156.401 157.402 153.211 152.907 153.211C151.239 153.211 148.546 153.906 145.98 155.85C145.821 156.03 145.731 156.261 145.728 156.502V156.556C146.031 157.974 146.031 159.63 146.031 162.132C146.031 163.572 146.031 165.073 146.013 166.574C145.995 169.627 145.98 172.507 146.031 174.685C146.031 176.168 146.928 176.525 147.652 176.809C148.045 176.896 148.355 176.971 148.669 177.043C149.271 177.191 149.898 177.342 150.831 177.49C150.969 178.122 150.957 178.778 150.795 179.405C150.757 179.64 150.664 179.863 150.525 180.056C148.197 179.977 145.807 179.909 142.358 179.909C141.313 179.909 139.608 179.952 138.101 179.992C136.88 180.024 135.726 180.056 135.07 180.06C134.893 179.642 134.814 179.189 134.84 178.735C134.803 178.308 134.887 177.879 135.081 177.497L136.007 177.328C136.815 177.184 137.514 177.061 138.17 176.896C139.309 176.536 139.738 175.916 139.821 174.466C140.044 171.082 140.217 161.329 139.738 158.888C138.923 154.972 136.692 152.984 133.103 152.984C131.001 152.984 128.345 153.996 126.175 155.62C125.967 155.823 125.802 156.066 125.692 156.336C125.583 156.605 125.53 156.895 125.537 157.186C125.537 158.348 125.537 159.731 125.537 161.214C125.537 166.11 125.505 172.205 125.624 174.84C125.696 175.654 125.984 176.618 127.509 176.971C127.844 177.068 128.421 177.162 129.091 177.274C129.477 177.338 129.898 177.407 130.335 177.486C130.473 178.348 130.403 179.231 130.129 180.06C129.459 180.06 128.633 180.017 127.689 179.977C126.247 179.912 124.445 179.833 122.409 179.833C120.001 179.833 118.326 179.912 116.981 179.977C116.077 180.02 115.294 180.056 114.512 180.06" fill="#21313C"/>
<path d="M191.796 151.616C190.495 151.589 189.216 151.949 188.12 152.65C185.445 154.273 184.083 157.517 184.083 162.283C184.083 171.204 188.556 177.436 194.96 177.436C196.678 177.49 198.353 176.898 199.653 175.776C201.621 174.174 202.666 170.898 202.666 166.312C202.666 157.524 198.294 151.616 191.789 151.616M193.021 180.744C181.452 180.744 177.333 172.266 177.333 164.335C177.333 158.795 179.6 154.464 184.072 151.458C187.205 149.521 190.801 148.459 194.485 148.384C203.311 148.384 209.478 154.723 209.478 163.806C209.478 169.976 207.016 174.851 202.356 177.896C200.118 179.264 196.229 180.744 193.021 180.744Z" fill="#21313C"/>
<path d="M309.579 151.616C308.276 151.587 306.993 151.947 305.896 152.65C303.222 154.273 301.859 157.517 301.859 162.283C301.859 171.204 306.332 177.436 312.736 177.436C314.459 177.494 316.139 176.901 317.443 175.776C319.411 174.174 320.453 170.898 320.453 166.312C320.453 157.524 316.085 151.616 309.579 151.616ZM310.812 180.744C299.243 180.744 295.123 172.266 295.123 164.339C295.123 158.791 297.39 154.464 301.866 151.458C304.997 149.52 308.592 148.458 312.275 148.384C321.102 148.384 327.268 154.727 327.268 163.802C327.268 169.98 324.807 174.851 320.147 177.893C317.908 179.264 314.02 180.744 310.812 180.744Z" fill="#21313C"/>
<path d="M270.626 151.314C267.061 151.314 264.754 154.126 264.754 158.478C264.754 162.83 266.74 168.004 272.323 168.004C273.282 168.004 275.019 167.579 275.88 166.632C277.178 165.44 278.043 162.978 278.043 160.379C278.043 154.702 275.275 151.314 270.644 151.314M270.182 181.352C269.175 181.341 268.182 181.589 267.299 182.072C264.477 183.872 263.169 185.672 263.169 187.764C263.169 189.722 263.929 191.281 265.565 192.664C267.548 194.341 270.222 195.158 273.736 195.158C280.652 195.158 283.752 191.443 283.752 187.764C283.752 185.201 282.465 183.484 279.816 182.512C277.776 181.766 274.367 181.356 270.193 181.356M270.654 198.996C266.502 198.996 263.511 198.121 260.956 196.156C258.469 194.24 257.352 191.396 257.352 189.431C257.378 188.164 257.862 186.95 258.714 186.011C259.435 185.19 261.111 183.653 264.985 180.992C265.045 180.967 265.096 180.924 265.132 180.87C265.168 180.815 265.187 180.752 265.187 180.686C265.188 180.614 265.165 180.543 265.12 180.485C265.075 180.427 265.013 180.387 264.942 180.37C261.752 179.149 260.79 177.13 260.498 176.05C260.498 176.01 260.498 175.949 260.466 175.88C260.375 175.456 260.289 175.052 260.869 174.638C261.316 174.322 262.03 173.897 262.794 173.447C263.872 172.85 264.907 172.178 265.89 171.434C265.943 171.378 265.982 171.31 266.004 171.236C266.027 171.161 266.032 171.083 266.019 171.007C266.007 170.93 265.977 170.858 265.932 170.794C265.887 170.731 265.828 170.679 265.76 170.642C261.039 169.058 258.66 165.556 258.66 160.202C258.645 158.533 259.034 156.885 259.793 155.398C260.553 153.911 261.66 152.628 263.021 151.66C264.92 150.158 269.689 148.355 272.777 148.355H272.957C276.133 148.43 277.924 149.096 280.404 150.011C281.814 150.52 283.309 150.757 284.808 150.709C287.435 150.709 288.585 149.878 289.573 148.909C289.733 149.345 289.818 149.805 289.825 150.27C289.885 151.377 289.584 152.473 288.967 153.395C288.43 154.14 287.165 154.68 286.008 154.68C285.889 154.68 285.774 154.68 285.648 154.662C285.039 154.619 284.436 154.519 283.846 154.363L283.55 154.468C283.456 154.604 283.518 154.756 283.593 154.95C283.612 154.988 283.626 155.028 283.637 155.069C283.847 156.03 283.991 157.004 284.065 157.985C284.065 163.583 281.856 166.02 279.467 167.827C277.156 169.559 274.413 170.62 271.537 170.894C271.476 170.894 271.177 170.92 270.615 170.97C270.254 171.002 269.786 171.046 269.717 171.046H269.649C269.13 171.19 267.775 171.834 267.775 173.033C267.775 174.026 268.387 175.261 271.318 175.484L273.213 175.618C277.077 175.888 281.903 176.222 284.174 176.989C285.68 177.518 286.981 178.508 287.891 179.818C288.801 181.128 289.275 182.692 289.245 184.286C289.245 189.308 285.669 194.032 279.683 196.919C276.86 198.266 273.769 198.959 270.64 198.946" fill="#21313C"/>
<path d="M252.944 177.382C251.25 177.155 250.014 176.924 248.554 176.24C248.267 175.944 248.079 175.567 248.013 175.16C247.858 172.802 247.858 165.959 247.858 161.48C247.858 157.826 247.246 154.64 245.696 152.354C243.847 149.766 241.23 148.247 237.842 148.247C234.84 148.247 230.836 150.299 227.527 153.114C227.448 153.19 226.94 153.672 226.951 152.923C226.961 152.174 227.077 150.655 227.149 149.683C227.181 149.425 227.152 149.163 227.064 148.918C226.977 148.673 226.833 148.452 226.644 148.272C224.482 149.352 218.416 150.792 216.171 151.012C214.534 151.328 214.12 152.902 215.868 153.445H215.893C217.292 153.831 218.628 154.418 219.858 155.188C220.55 155.72 220.474 156.48 220.474 157.088C220.55 162.182 220.55 170.016 220.319 174.275C220.243 175.949 219.778 176.557 218.546 176.863L218.661 176.824C217.722 177.059 216.77 177.237 215.81 177.356C215.425 177.734 215.425 179.941 215.81 180.398C216.582 180.398 220.496 180.172 223.739 180.172C228.201 180.172 230.512 180.398 231.668 180.398C232.133 179.866 232.285 177.814 231.978 177.356C230.912 177.308 229.854 177.155 228.818 176.899C227.589 176.597 227.279 175.985 227.203 174.62C227.052 171.042 227.052 163.439 227.052 158.266C227.052 156.826 227.434 156.138 227.895 155.746C229.434 154.378 231.978 153.467 234.209 153.467C236.372 153.467 237.814 154.151 238.895 155.062C240.154 156.159 240.944 157.698 241.101 159.36C241.407 162.24 241.328 168.032 241.328 173.04C241.328 175.78 241.1 176.467 240.099 176.77C239.637 176.996 238.405 177.227 236.941 177.378C236.48 177.835 236.631 179.963 236.941 180.42C238.942 180.42 241.266 180.193 244.64 180.193C248.875 180.193 251.571 180.42 252.648 180.42C253.109 179.887 253.264 177.9 252.958 177.378" fill="#21313C"/>
</svg>
