<svg width="500" height="300" viewBox="0 0 500 300" fill="none" xmlns="http://www.w3.org/2000/svg">
<rect width="500" height="300" fill="white"/>
<path d="M74.3436 224.82H85.8566V179.282L103.722 218.949C105.865 223.709 108.724 225.455 114.361 225.455C119.999 225.455 122.778 223.789 124.921 218.949L142.786 179.282V224.82H154.299V179.362C154.299 174.919 152.553 172.777 148.821 171.666C140.087 168.969 134.132 171.27 131.512 177.22L114.044 216.411L97.052 177.22C94.5112 171.27 88.4768 168.969 79.7428 171.666C76.0904 172.777 74.2642 174.919 74.2642 179.362V224.82H74.3436ZM163.907 187.771H175.42V212.841C175.34 214.189 175.896 217.442 182.169 217.521C185.424 217.601 207.1 217.521 207.259 217.521V187.612H218.852C218.931 187.612 218.852 228.39 218.852 228.549C218.931 238.624 206.386 240.766 200.59 240.925H164.145V233.15H200.669C208.133 232.357 207.259 228.707 207.259 227.438V224.423H182.725C171.291 224.344 164.066 219.346 163.986 213.634C163.907 213.158 164.224 188.009 163.907 187.771Z" fill="#00618A"/>
<path d="M227.824 224.82H261.013C264.904 224.82 268.635 224.027 271.653 222.599C276.655 220.298 279.116 217.204 279.116 213.158V204.749C279.116 201.416 276.337 198.322 270.938 196.26C268.08 195.149 264.507 194.594 261.092 194.594H247.118C242.433 194.594 240.21 193.166 239.654 190.072C239.575 189.675 239.575 189.358 239.575 189.04V183.804C239.575 183.487 239.575 183.249 239.654 182.852C240.21 180.472 241.401 179.838 245.53 179.441C245.848 179.441 246.324 179.362 246.642 179.362H279.593V171.666H247.118C242.433 171.666 240.051 171.984 237.828 172.618C230.92 174.76 227.903 178.172 227.903 184.122V190.865C227.903 196.022 233.779 200.465 243.624 201.496C244.736 201.575 245.848 201.655 246.959 201.655H258.949C259.425 201.655 259.822 201.655 260.14 201.734C263.792 202.051 265.38 202.686 266.492 204.035C267.206 204.749 267.365 205.383 267.365 206.097V212.841C267.365 213.634 266.809 214.665 265.698 215.538C264.665 216.411 262.998 217.045 260.775 217.204C260.298 217.204 259.981 217.283 259.584 217.283H227.744L227.824 224.82ZM351.053 211.492C351.053 219.425 356.928 223.868 368.838 224.741C369.95 224.82 371.061 224.899 372.173 224.899H402.266V217.204H371.935C365.186 217.204 362.645 215.538 362.645 211.413V171.666H351.132L351.053 211.492ZM286.421 211.889V184.439C286.421 177.458 291.344 173.253 300.951 171.904C301.983 171.746 303.016 171.666 304.048 171.666H325.962C327.074 171.666 328.106 171.746 329.218 171.904C338.904 173.253 343.748 177.458 343.748 184.439V211.889C343.748 217.521 341.683 220.536 336.84 222.519L348.194 232.753H334.776L325.724 224.423L316.434 224.979H304.127C301.983 224.979 299.76 224.661 297.378 224.027C289.994 222.043 286.421 218.235 286.421 211.889ZM298.887 211.175C298.887 211.571 298.966 211.889 299.125 212.365C299.84 215.538 302.777 217.363 307.303 217.363H317.784L308.177 208.636H321.595L330.012 216.252C331.6 215.459 332.552 214.189 332.949 212.523C333.029 212.127 333.029 211.809 333.029 211.413V185.153C333.029 184.836 333.029 184.439 332.949 184.122C332.235 181.186 329.297 179.441 324.851 179.441H307.462C302.301 179.441 299.046 181.662 299.046 185.153L298.887 211.175Z" fill="#E48E00"/>
<path d="M412.429 158.814C405.362 158.656 399.884 159.29 395.278 161.194C393.929 161.75 391.864 161.75 391.626 163.416C392.341 164.209 392.499 165.32 393.055 166.272C394.167 168.096 395.993 170.476 397.66 171.746C399.487 173.094 401.392 174.602 403.298 175.792C406.791 177.934 410.682 179.124 414.017 181.266C416.002 182.535 417.907 184.122 419.892 185.47C420.845 186.184 421.48 187.216 422.751 187.692V187.454C422.116 186.66 421.957 185.47 421.322 184.598L418.701 181.98C416.161 178.568 412.905 175.554 409.412 173.094C406.633 171.111 400.439 168.414 399.328 165.24L399.09 165.002C401.075 164.764 403.377 164.05 405.124 163.574C408.141 162.781 410.841 162.94 414.017 162.146L418.225 160.956V160.163C416.637 158.576 415.525 156.355 413.779 154.927C409.253 151.119 404.33 147.231 399.248 144.058C396.469 142.313 392.976 141.123 389.959 139.615C388.926 139.139 387.18 138.822 386.544 138.029C384.956 136.045 384.162 133.507 382.892 131.206C380.351 126.367 377.89 120.972 375.667 115.894C374.158 112.404 373.126 108.913 371.22 105.819C362.089 90.7456 352.164 81.7015 336.919 72.7368C333.664 70.8328 329.773 70.1188 325.645 69.0874L318.975 68.6907C317.625 68.1354 316.196 66.4694 314.926 65.6761C309.844 62.5027 296.902 55.5213 293.17 64.6447C290.788 70.4361 296.743 76.0688 298.807 78.9248C300.316 80.9875 302.222 83.2882 303.254 85.5889C303.968 87.0962 304.048 88.6036 304.683 90.1903C306.112 94.157 307.462 98.441 309.288 102.09C310.241 103.915 311.273 105.898 312.544 107.564C313.258 108.596 314.529 108.992 314.767 110.579C313.496 112.324 313.417 115.022 312.782 117.243C309.606 127.16 310.797 139.536 315.402 146.914C316.831 149.135 320.087 153.975 324.692 152.15C328.662 150.563 327.788 145.486 328.9 141.043C329.138 140.012 328.979 139.298 329.535 138.663V138.901L333.188 146.121C335.887 150.484 340.651 155.006 344.701 158.021C346.765 159.608 348.432 162.305 351.132 163.257V163.019H350.894C350.338 162.226 349.544 161.829 348.909 161.194C347.321 159.608 345.574 157.703 344.304 155.958C340.651 150.96 337.396 145.486 334.379 139.853C332.949 137.156 331.758 134.141 330.567 131.365C330.091 130.333 330.091 128.667 329.138 128.112C327.868 130.175 325.883 131.761 324.93 134.141C323.342 137.949 323.104 142.63 322.548 147.469C322.23 147.628 322.389 147.469 322.151 147.707C319.372 146.993 318.34 144.137 317.308 141.678C314.687 135.411 314.211 125.335 316.514 118.116C317.149 116.212 319.848 110.341 318.737 108.675C318.181 106.93 316.514 105.978 315.481 104.629C314.29 103.042 313.099 100.9 312.226 98.9963C310.082 94.0776 309.05 88.6036 306.747 83.6849C305.636 81.3049 303.81 78.9248 302.301 76.8622C300.634 74.5615 298.728 72.8161 297.458 70.0394C296.981 69.0081 296.346 67.4214 297.061 66.3901C297.219 65.7554 297.696 65.2794 298.252 65.2C299.443 64.3274 302.698 65.5174 303.889 65.9934C307.144 67.3421 309.844 68.6114 312.544 70.4361C313.893 71.3088 315.164 72.9748 316.752 73.4508H318.578C321.436 74.0855 324.612 73.6888 327.233 74.4821C331.917 75.9101 336.125 78.1315 339.937 80.5115C351.529 87.8102 361.057 98.2823 367.568 110.738C368.6 112.721 369.076 114.625 369.95 116.767C371.776 121.051 374.158 125.494 375.984 129.699C377.81 133.903 379.637 138.108 382.257 141.599C383.607 143.423 388.926 144.375 391.308 145.407C392.976 146.121 395.755 146.835 397.343 147.787C400.36 149.611 403.377 151.833 406.236 153.816C407.824 154.847 412.191 157.069 412.429 158.814Z" fill="#00618A"/>
<path fill-rule="evenodd" clip-rule="evenodd" d="M322.23 82.0189C320.722 82.0189 319.689 82.1775 318.578 82.4155V82.6535H318.816C319.531 84.0815 320.801 85.0335 321.674 86.3029L323.659 90.5076L323.898 90.2696C325.168 89.3969 325.724 87.9689 325.724 85.8269C325.247 85.2715 325.168 84.6369 324.692 84.0022C324.056 83.2089 322.945 82.7329 322.23 82.0189Z" fill="#00618A"/>
<path fill-rule="evenodd" clip-rule="evenodd" d="M407.665 216.966C407.665 222.043 411.714 225.455 416.161 225.455C420.607 225.455 424.656 222.043 424.656 216.966C424.656 211.889 420.607 208.477 416.161 208.477C411.714 208.477 407.665 211.889 407.665 216.966ZM422.751 216.966C422.751 220.853 419.813 223.709 416.161 223.709C412.429 223.709 409.57 220.853 409.57 216.966C409.57 213.079 412.508 210.223 416.161 210.223C419.813 210.223 422.751 213.079 422.751 216.966ZM418.463 221.805H420.369L417.59 217.521C419.098 217.363 420.21 216.649 420.21 214.903C420.21 212.92 418.94 212.127 416.558 212.127H412.746V221.805H414.414V217.601H415.922L418.463 221.805ZM414.414 216.252V213.475H416.319C417.272 213.475 418.463 213.634 418.463 214.824C418.463 216.173 417.431 216.331 416.161 216.331L414.414 216.252Z" fill="#E48E00"/>
</svg>
