<svg width="500" height="300" viewBox="0 0 500 300" fill="none" xmlns="http://www.w3.org/2000/svg">
<rect width="500" height="300" fill="white"/>
<g clip-path="url(#clip0_10_121)">
<path d="M107.084 254.42H91.3718V240.03H108.013C114.127 240.03 117.146 242.428 117.146 247.38C117.146 252.022 113.818 254.42 107.084 254.42ZM118.462 239.875C116.295 238.096 113.276 237.245 109.406 237.245L86.8052 237.322V271.828H91.3718L91.2944 257.128H108.09C112.347 257.128 115.598 256.277 118.075 254.498C120.474 252.718 121.713 250.32 121.713 247.148C121.713 244.13 120.629 241.655 118.462 239.875ZM147.951 264.555C147.487 265.716 146.79 266.722 145.784 267.495C143.772 269.275 140.598 270.203 136.419 270.203C132.626 270.203 129.762 269.352 127.672 267.573C125.66 265.793 124.654 263.472 124.654 260.532C124.654 258.985 124.886 257.67 125.428 256.432C125.97 255.271 126.744 254.266 127.75 253.415C129.84 251.712 132.703 250.784 136.419 250.784C144.546 250.784 148.648 254.033 148.648 260.455C148.648 262.002 148.416 263.395 147.951 264.555ZM148.803 251.867C146.016 249.546 141.914 248.386 136.496 248.386C131.388 248.386 127.363 249.546 124.576 251.867C122.022 253.956 120.784 256.819 120.784 260.455C120.784 264.091 122.1 266.954 124.731 269.12C126.202 270.358 127.905 271.209 129.762 271.673C131.697 272.215 133.942 272.447 136.496 272.447C141.914 272.447 146.016 271.286 148.88 269.043C151.434 266.954 152.673 264.091 152.673 260.378C152.673 256.819 151.357 253.879 148.803 251.867ZM183.246 265.561C183.246 270.203 178.679 272.524 169.468 272.524C166.682 272.524 164.283 272.37 162.425 272.06C160.49 271.751 158.942 271.209 157.781 270.435C156.852 269.894 156.078 269.12 155.614 268.192C155.072 267.109 154.685 265.948 154.53 264.71H158.787C158.787 266.567 159.561 267.882 161.032 268.733C162.657 269.739 165.444 270.281 169.546 270.281C175.97 270.281 179.143 268.811 179.143 265.871C179.143 264.169 178.06 263.008 175.893 262.389C175.428 262.234 172.874 261.925 168.153 261.383L159.252 259.991C156.697 259.062 155.459 257.438 155.459 255.039C155.459 252.718 156.62 251.016 158.865 249.856C159.948 249.391 161.341 249.005 163.044 248.773C164.747 248.54 166.682 248.386 168.849 248.386C177.673 248.386 182.007 250.861 182.007 255.89H177.982C177.982 252.331 174.886 250.629 168.694 250.629C165.521 250.629 163.199 251.016 161.651 251.712C160.103 252.409 159.329 253.492 159.329 255.039C159.329 256.355 160.335 257.438 162.502 258.057C163.741 258.366 166.527 258.753 170.939 259.14C174.886 259.449 177.595 259.913 179.066 260.532C181.852 261.461 183.246 263.085 183.246 265.561ZM200.041 271.828L198.339 272.06L197.255 272.137C194.469 272.137 192.456 271.751 191.218 271.054C189.979 270.358 189.36 269.043 189.36 267.186V251.48H184.329V249.159H189.36L189.438 241.732H193.308V249.159H200.041V251.48H193.308V266.799C193.308 267.96 193.617 268.733 194.314 269.197C195.01 269.662 196.171 269.816 197.874 269.816C198.106 269.816 198.416 269.816 198.648 269.816C198.88 269.816 199.422 269.662 199.964 269.507L200.041 271.828ZM226.899 266.644C225.816 267.418 224.577 268.037 223.261 268.424C221.868 268.811 220.32 269.043 218.54 269.043C210.413 269.043 206.311 266.025 206.311 259.913C206.311 257.051 207.317 254.885 209.407 253.26C211.497 251.635 214.438 250.861 218.23 250.861C222.023 250.861 224.964 251.635 226.899 253.26C228.834 254.885 229.84 257.051 229.84 259.759C229.918 262.776 228.912 265.097 226.899 266.644ZM233.788 249.237H229.918L229.84 253.105C228.138 251.558 226.899 250.552 226.203 250.088C224.035 249.005 221.249 248.463 217.766 248.463C212.735 248.463 208.865 249.469 206.156 251.635C203.602 253.569 202.363 256.355 202.363 259.991C202.363 261.77 202.673 263.395 203.292 264.788C203.911 266.18 204.918 267.418 206.079 268.424C208.788 270.435 212.503 271.441 217.379 271.441C223.261 271.441 227.364 269.971 229.84 267.031V271.054C229.84 273.607 228.912 275.619 227.131 277.012C225.351 278.404 222.41 279.1 218.308 279.1C214.438 279.1 211.729 278.636 210.103 277.63C208.865 276.857 208.091 275.619 207.549 273.762H203.524C203.989 276.315 205.15 278.172 207.085 279.255C209.329 280.57 213.122 281.189 218.385 281.189C228.525 281.189 233.633 277.785 233.633 270.9L233.788 249.237ZM254.841 251.48C253.757 251.326 252.673 251.248 251.59 251.248C245.166 251.248 241.992 254.42 241.992 260.764V271.828H238.122L238.045 249.237H241.915V253.26H242.147C242.766 251.712 243.85 250.475 245.243 249.624C246.791 248.85 249.113 248.463 252.209 248.463H254.841V251.48ZM258.478 259.062C258.943 256.509 260.104 254.498 261.807 253.105C262.89 252.331 264.206 251.712 265.599 251.248C266.992 250.784 268.618 250.629 270.321 250.629C273.804 250.629 276.59 251.48 278.757 253.182C280.924 254.885 282.008 256.819 282.008 258.985L258.478 259.062ZM282.395 252.099C281.002 250.861 279.376 249.933 277.364 249.391C275.352 248.85 272.952 248.463 270.321 248.463C265.212 248.463 261.342 249.546 258.633 251.635C255.847 253.724 254.454 256.664 254.454 260.3C254.454 263.936 255.769 266.876 258.478 268.965C261.342 271.364 265.444 272.524 270.708 272.524C272.797 272.524 274.732 272.292 276.513 271.828C278.293 271.364 279.841 270.822 281.157 269.971C283.479 268.424 284.949 266.567 285.568 264.323H281.389C279.918 268.192 276.358 270.126 270.63 270.126C266.605 270.126 263.432 269.197 261.265 267.263C259.407 265.639 258.478 263.55 258.478 260.997H286.188C286.11 257.206 284.872 254.188 282.395 252.099Z" fill="#231F20"/>
<path d="M327.209 262.544C327.209 269.275 321.25 272.602 309.33 272.602C302.209 272.602 296.946 271.441 293.695 269.12C290.986 267.186 289.67 264.323 289.67 260.455H294.469C294.469 266.722 299.423 269.894 309.33 269.894C314.129 269.894 317.534 269.197 319.624 267.96C321.404 266.799 322.333 265.02 322.333 262.621C322.333 260.223 321.095 258.521 318.695 257.592C317.38 257.051 313.897 256.432 308.556 255.658C301.745 254.73 297.41 253.801 295.398 252.873C292.457 251.48 290.986 249.159 290.986 245.833C290.986 242.815 292.225 240.417 294.701 238.947C297.333 237.322 301.977 236.471 308.401 236.471C320.089 236.471 325.971 240.03 325.971 247.07H321.095C321.095 241.809 316.76 239.179 308.092 239.179C303.757 239.179 300.584 239.721 298.494 240.804C296.559 241.964 295.63 243.589 295.63 245.833C295.63 248.154 296.869 249.778 299.268 250.707C300.584 251.248 304.376 252.022 310.801 252.95C316.76 253.724 320.863 254.73 322.952 255.813C325.739 256.973 327.209 259.294 327.209 262.544ZM366.296 265.948C364.439 267.263 362.426 268.269 360.182 268.888C357.937 269.507 355.383 269.894 352.597 269.894C346.869 269.894 342.225 268.501 338.742 265.716C335.182 262.931 333.479 259.14 333.479 254.498C333.479 249.624 335.259 245.833 338.742 243.125C342.225 240.417 346.869 239.024 352.674 239.024C358.556 239.024 363.123 240.417 366.451 243.279C368.154 244.595 369.47 246.219 370.399 248.154C371.25 250.01 371.637 252.099 371.637 254.498C371.637 259.372 369.857 263.163 366.296 265.948ZM368.851 268.269C371.327 266.644 373.185 264.71 374.423 262.467C375.662 260.223 376.204 257.515 376.204 254.575C376.204 249.237 374.269 244.904 370.321 241.732C368.231 239.953 365.677 238.637 362.736 237.786C359.795 236.935 356.389 236.471 352.597 236.471C345.166 236.471 339.361 238.096 335.182 241.345C330.925 244.595 328.835 249.005 328.835 254.575C328.68 259.759 331.079 264.633 335.182 267.727C339.439 271.054 345.244 272.756 352.597 272.756C355.151 272.756 357.628 272.602 360.104 272.215C362.272 271.828 364.052 271.286 365.6 270.59L372.721 275.077L375.662 272.602L368.851 268.269ZM412.195 271.751H379.377V237.245L383.866 237.167V268.888H412.272L412.195 271.751Z" fill="#367FAF"/>
</g>
<path d="M276.825 159.345C278.017 150.474 277.666 149.133 284.884 150.601L286.706 150.729C292.313 150.984 299.601 149.899 303.876 148.112C313.126 144.219 318.592 137.708 309.482 139.368C288.669 143.261 287.267 136.878 287.267 136.878C309.202 107.199 318.382 69.5412 310.463 60.2864C288.879 35.1386 251.457 47.0104 250.826 47.3295L250.616 47.3934C246.481 46.6274 241.926 46.1807 236.74 46.053C227.35 45.9253 220.201 48.2869 214.805 52.0527C214.805 52.0527 148.09 27.0326 151.174 83.5193C151.804 95.5187 170.095 174.536 191.89 150.665C199.879 141.921 207.517 134.581 207.517 134.581C211.372 136.878 215.927 138.091 220.692 137.644L221.042 137.325C220.902 138.41 220.972 139.495 221.183 140.708C215.576 146.389 217.188 147.41 205.975 149.516C194.623 151.622 201.28 155.452 205.625 156.409C210.881 157.622 223.145 159.282 231.344 148.814L230.994 150.027C233.166 151.622 233.026 161.579 233.376 168.664C233.727 175.749 234.217 182.387 235.829 186.28C237.441 190.174 239.263 200.258 254.05 197.322C266.594 194.961 275.984 191.514 276.825 159.345Z" fill="#231F20" stroke="#231F20" stroke-width="5.046"/>
<path d="M309.622 139.368C288.809 143.261 287.407 136.878 287.407 136.878C309.342 107.199 318.522 69.5412 310.603 60.2864C289.019 35.1386 251.597 47.0104 250.966 47.3295L250.756 47.3934C246.621 46.6274 242.066 46.1807 236.88 46.053C227.49 45.9253 220.342 48.2869 214.946 52.0527C214.946 52.0527 148.231 27.0326 151.314 83.5193C151.945 95.5187 170.235 174.536 192.03 150.665C200.019 141.921 207.658 134.581 207.658 134.581C211.512 136.878 216.067 138.091 220.832 137.644L221.183 137.325C221.043 138.41 221.113 139.495 221.323 140.708C215.717 146.389 217.328 147.41 206.116 149.516C194.763 151.622 201.421 155.452 205.765 156.409C211.021 157.622 223.285 159.282 231.484 148.814L231.134 150.027C233.306 151.622 234.848 160.431 234.638 168.473C234.358 176.451 234.217 181.94 235.969 186.28C237.721 190.557 239.403 200.258 254.19 197.322C266.524 194.897 272.901 188.706 273.812 178.302C274.443 170.898 275.844 171.983 275.984 165.409L277.106 162.281C278.437 152.261 277.316 149.006 284.885 150.537L286.707 150.665C292.313 150.92 299.601 149.835 303.876 148.048C313.196 144.155 318.663 137.644 309.622 139.368Z" fill="#417BA2"/>
<path d="M232.465 145.112C231.905 163.749 232.605 182.514 234.638 187.11C236.67 191.706 240.945 200.577 255.661 197.641C267.995 195.216 272.48 190.557 274.442 180.281C275.844 172.749 278.647 151.75 278.998 147.41M214.805 51.6059C214.805 51.6059 148.02 26.7773 151.104 83.2639C151.734 95.2634 170.025 174.281 191.819 150.41C199.808 141.665 206.956 134.836 206.956 134.836M250.896 47.0742C248.583 47.7124 288.038 33.9259 310.463 60.031C318.382 69.222 309.272 106.944 287.267 136.623" stroke="white" stroke-width="1.682" stroke-linecap="round" stroke-linejoin="round"/>
<path d="M287.197 136.623C287.197 136.623 288.598 143.07 309.412 139.112C318.522 137.389 313.056 143.899 303.806 147.857C296.237 151.048 279.208 151.878 278.928 147.474C278.227 135.985 287.898 139.495 287.197 136.623ZM287.197 136.623C286.566 134.07 282.221 131.517 279.418 125.198C276.895 119.709 245.22 77.4557 288.248 83.7107C289.86 83.3916 277.035 46.4359 236.74 45.8614C196.445 45.287 197.846 90.9869 197.846 90.9869" stroke="white" stroke-width="1.682" stroke-linecap="round" stroke-linejoin="bevel"/>
<path d="M221.182 140.517C215.576 146.197 217.188 147.218 205.975 149.325C194.623 151.431 201.28 155.261 205.625 156.218C210.881 157.431 223.145 159.154 231.344 148.623C233.867 145.431 231.344 140.325 227.91 138.985C226.298 138.41 224.056 137.581 221.182 140.517Z" stroke="white" stroke-width="1.682" stroke-linejoin="round"/>
<path d="M220.832 140.453C220.272 137.07 222.024 133.113 223.916 128.453C226.789 121.432 233.376 114.411 228.12 92.1997C224.196 75.6048 197.776 88.7531 197.776 90.987C197.776 93.2209 198.968 102.412 197.356 113.007C195.253 126.921 207.097 138.666 220.692 137.453" stroke="white" stroke-width="1.682" stroke-linecap="round" stroke-linejoin="round"/>
<path d="M214.526 90.604C214.386 91.37 216.067 93.4124 218.24 93.6677C220.412 93.923 222.234 92.3274 222.375 91.5614C222.515 90.7955 220.833 89.9658 218.66 89.6466C216.558 89.3913 214.666 89.8381 214.526 90.604Z" fill="white" stroke="white" stroke-width="0.561"/>
<path d="M280.47 89.0083C280.61 89.7743 278.928 91.8167 276.756 92.072C274.583 92.3273 272.761 90.7317 272.621 89.9657C272.481 89.1998 274.163 88.3701 276.335 88.0509C278.508 87.8595 280.33 88.2424 280.47 89.0083Z" fill="white" stroke="white" stroke-width="0.28"/>
<path d="M288.178 83.7107C288.528 89.7104 286.776 93.8591 286.496 100.242C286.146 109.561 291.402 120.22 283.553 130.879" stroke="white" stroke-width="1.682" stroke-linecap="round" stroke-linejoin="round"/>
<defs>
<clipPath id="clip0_10_121">
<rect width="325" height="61" fill="white" transform="translate(87 220)"/>
</clipPath>
</defs>
</svg>
