<svg width="500" height="300" viewBox="0 0 500 300" fill="none" xmlns="http://www.w3.org/2000/svg">
<g clip-path="url(#clip0_10_58)">
<rect width="500" height="300" fill="white"/>
<path d="M258.942 112.968C258.942 112.968 185.845 136.252 171.377 136.5C171.377 136.5 171.032 143.107 175.183 157.186C179.887 158.859 233.445 145.198 239.401 142.071C263.296 129.526 255.448 123.182 313.398 103.026C313.398 103.026 312.301 97.9955 307.902 90.8755C307.902 90.8755 286.551 105.399 258.942 112.968Z" fill="white"/>
<path d="M175.887 156.979C174 154.475 171.297 138.82 171.297 138.82C171.297 138.82 132.974 155.478 137.348 183.268C139.398 196.324 150.52 198.099 155.273 198.64C165.567 199.814 180.52 191.941 189.039 186.005C206.178 174.064 215.408 162.541 242.539 140.382C242.539 140.382 204.133 155.025 175.887 156.979Z" fill="url(#paint0_linear_10_58)"/>
<path d="M171.376 136.501C171.376 136.501 156.517 81.5799 193.012 60.6763C205.199 53.697 228.881 46.0788 240.663 44.5156C252.446 42.9536 280.2 38.0143 294.468 61.5511C299.684 70.1506 306.469 85.3681 307.901 90.8767C292.994 107.134 187.903 135.453 171.376 136.501Z" fill="url(#paint1_linear_10_58)"/>
<path d="M265.365 127.398C265.365 127.398 290.215 122.484 322.71 121.196C348.678 120.169 363.611 109.389 359.935 103.841C356.257 98.2947 328.05 81.3619 265.365 127.398Z" fill="url(#paint2_linear_10_58)"/>
<path d="M360.772 103.214C360.772 103.214 321.794 58.8482 198.537 176.698C170.95 198.61 144.92 202.461 138.28 186.436C143.554 201.716 158.611 201.452 177.221 195.23C201.58 187.083 235.373 154.873 239.629 151.698C272.973 126.813 329.997 86.6562 360.331 106.914C360.331 106.914 361.407 104.938 360.772 103.214Z" fill="black"/>
<path d="M93.6591 257H89.2273L102.045 222.091H106.409L119.227 257H114.795L104.364 227.614H104.091L93.6591 257ZM95.2955 243.364H113.159V247.114H95.2955V243.364ZM124.119 266.818V230.818H128.006V234.977H128.483C128.778 234.523 129.188 233.943 129.71 233.239C130.244 232.523 131.006 231.886 131.994 231.33C132.994 230.761 134.347 230.477 136.051 230.477C138.256 230.477 140.199 231.028 141.881 232.131C143.563 233.233 144.875 234.795 145.818 236.818C146.761 238.841 147.233 241.227 147.233 243.977C147.233 246.75 146.761 249.153 145.818 251.188C144.875 253.21 143.568 254.778 141.898 255.892C140.227 256.994 138.301 257.545 136.119 257.545C134.438 257.545 133.091 257.267 132.08 256.71C131.068 256.142 130.29 255.5 129.744 254.784C129.199 254.057 128.778 253.455 128.483 252.977H128.142V266.818H124.119ZM128.074 243.909C128.074 245.886 128.364 247.631 128.943 249.142C129.523 250.642 130.369 251.818 131.483 252.67C132.597 253.511 133.96 253.932 135.574 253.932C137.256 253.932 138.659 253.489 139.784 252.602C140.92 251.705 141.773 250.5 142.341 248.989C142.92 247.466 143.21 245.773 143.21 243.909C143.21 242.068 142.926 240.409 142.358 238.932C141.801 237.443 140.955 236.267 139.818 235.403C138.693 234.528 137.278 234.091 135.574 234.091C133.938 234.091 132.563 234.506 131.449 235.335C130.335 236.153 129.494 237.301 128.926 238.778C128.358 240.244 128.074 241.955 128.074 243.909ZM161.074 257.614C159.415 257.614 157.909 257.301 156.557 256.676C155.205 256.04 154.131 255.125 153.335 253.932C152.54 252.727 152.142 251.273 152.142 249.568C152.142 248.068 152.438 246.852 153.028 245.92C153.619 244.977 154.409 244.239 155.398 243.705C156.386 243.17 157.477 242.773 158.67 242.511C159.875 242.239 161.085 242.023 162.301 241.864C163.892 241.659 165.182 241.506 166.17 241.403C167.17 241.29 167.898 241.102 168.352 240.841C168.818 240.58 169.051 240.125 169.051 239.477V239.341C169.051 237.659 168.591 236.352 167.67 235.42C166.761 234.489 165.381 234.023 163.528 234.023C161.608 234.023 160.102 234.443 159.011 235.284C157.92 236.125 157.153 237.023 156.71 237.977L152.892 236.614C153.574 235.023 154.483 233.784 155.619 232.898C156.767 232 158.017 231.375 159.369 231.023C160.733 230.659 162.074 230.477 163.392 230.477C164.233 230.477 165.199 230.58 166.29 230.784C167.392 230.977 168.455 231.381 169.477 231.994C170.511 232.608 171.369 233.534 172.051 234.773C172.733 236.011 173.074 237.67 173.074 239.75V257H169.051V253.455H168.847C168.574 254.023 168.119 254.631 167.483 255.278C166.847 255.926 166 256.477 164.943 256.932C163.886 257.386 162.597 257.614 161.074 257.614ZM161.688 254C163.278 254 164.619 253.688 165.71 253.062C166.813 252.438 167.642 251.631 168.199 250.642C168.767 249.653 169.051 248.614 169.051 247.523V243.841C168.881 244.045 168.506 244.233 167.926 244.403C167.358 244.562 166.699 244.705 165.949 244.83C165.21 244.943 164.489 245.045 163.784 245.136C163.091 245.216 162.528 245.284 162.097 245.341C161.051 245.477 160.074 245.699 159.165 246.006C158.267 246.301 157.54 246.75 156.983 247.352C156.438 247.943 156.165 248.75 156.165 249.773C156.165 251.17 156.682 252.227 157.716 252.943C158.761 253.648 160.085 254 161.688 254ZM191.053 257.545C188.598 257.545 186.484 256.966 184.712 255.807C182.939 254.648 181.575 253.051 180.621 251.017C179.666 248.983 179.189 246.659 179.189 244.045C179.189 241.386 179.678 239.04 180.655 237.006C181.643 234.96 183.018 233.364 184.78 232.216C186.553 231.057 188.621 230.477 190.984 230.477C192.825 230.477 194.484 230.818 195.962 231.5C197.439 232.182 198.649 233.136 199.592 234.364C200.536 235.591 201.121 237.023 201.348 238.659H197.325C197.018 237.466 196.337 236.409 195.28 235.489C194.234 234.557 192.825 234.091 191.053 234.091C189.484 234.091 188.109 234.5 186.928 235.318C185.757 236.125 184.842 237.267 184.183 238.744C183.536 240.21 183.212 241.932 183.212 243.909C183.212 245.932 183.53 247.693 184.166 249.193C184.814 250.693 185.723 251.858 186.893 252.688C188.075 253.517 189.462 253.932 191.053 253.932C192.098 253.932 193.047 253.75 193.899 253.386C194.751 253.023 195.473 252.5 196.064 251.818C196.655 251.136 197.075 250.318 197.325 249.364H201.348C201.121 250.909 200.558 252.301 199.661 253.54C198.774 254.767 197.598 255.744 196.132 256.472C194.678 257.188 192.984 257.545 191.053 257.545ZM211.251 241.25V257H207.229V222.091H211.251V234.909H211.592C212.206 233.557 213.126 232.483 214.354 231.688C215.592 230.881 217.24 230.477 219.297 230.477C221.081 230.477 222.643 230.835 223.984 231.551C225.325 232.256 226.365 233.341 227.104 234.807C227.854 236.261 228.229 238.114 228.229 240.364V257H224.206V240.636C224.206 238.557 223.666 236.949 222.587 235.812C221.518 234.665 220.036 234.091 218.138 234.091C216.82 234.091 215.638 234.369 214.592 234.926C213.558 235.483 212.74 236.295 212.138 237.364C211.547 238.432 211.251 239.727 211.251 241.25ZM246.565 257.545C244.043 257.545 241.866 256.989 240.037 255.875C238.219 254.75 236.815 253.182 235.827 251.17C234.849 249.148 234.361 246.795 234.361 244.114C234.361 241.432 234.849 239.068 235.827 237.023C236.815 234.966 238.19 233.364 239.952 232.216C241.724 231.057 243.793 230.477 246.156 230.477C247.52 230.477 248.866 230.705 250.196 231.159C251.526 231.614 252.736 232.352 253.827 233.375C254.918 234.386 255.787 235.727 256.435 237.398C257.082 239.068 257.406 241.125 257.406 243.568V245.273H237.224V241.795H253.315C253.315 240.318 253.02 239 252.429 237.841C251.849 236.682 251.02 235.767 249.94 235.097C248.872 234.426 247.611 234.091 246.156 234.091C244.554 234.091 243.168 234.489 241.997 235.284C240.838 236.068 239.946 237.091 239.321 238.352C238.696 239.614 238.384 240.966 238.384 242.409V244.727C238.384 246.705 238.724 248.381 239.406 249.756C240.099 251.119 241.06 252.159 242.287 252.875C243.514 253.58 244.94 253.932 246.565 253.932C247.622 253.932 248.577 253.784 249.429 253.489C250.293 253.182 251.037 252.727 251.662 252.125C252.287 251.511 252.77 250.75 253.111 249.841L256.997 250.932C256.588 252.25 255.901 253.409 254.935 254.409C253.969 255.398 252.776 256.17 251.355 256.727C249.935 257.273 248.338 257.545 246.565 257.545ZM288.344 257H277.571V222.091H288.821C292.207 222.091 295.105 222.79 297.514 224.188C299.923 225.574 301.77 227.568 303.054 230.17C304.338 232.761 304.98 235.864 304.98 239.477C304.98 243.114 304.332 246.244 303.037 248.869C301.741 251.483 299.855 253.494 297.378 254.903C294.901 256.301 291.889 257 288.344 257ZM281.798 253.25H288.071C290.957 253.25 293.349 252.693 295.247 251.58C297.145 250.466 298.56 248.881 299.491 246.824C300.423 244.767 300.889 242.318 300.889 239.477C300.889 236.659 300.429 234.233 299.509 232.199C298.588 230.153 297.213 228.585 295.384 227.494C293.554 226.392 291.276 225.841 288.548 225.841H281.798V253.25ZM322.503 257.545C319.98 257.545 317.804 256.989 315.974 255.875C314.156 254.75 312.753 253.182 311.764 251.17C310.787 249.148 310.298 246.795 310.298 244.114C310.298 241.432 310.787 239.068 311.764 237.023C312.753 234.966 314.128 233.364 315.889 232.216C317.662 231.057 319.73 230.477 322.094 230.477C323.457 230.477 324.804 230.705 326.134 231.159C327.463 231.614 328.673 232.352 329.764 233.375C330.855 234.386 331.724 235.727 332.372 237.398C333.02 239.068 333.344 241.125 333.344 243.568V245.273H313.162V241.795H329.253C329.253 240.318 328.957 239 328.366 237.841C327.787 236.682 326.957 235.767 325.878 235.097C324.81 234.426 323.548 234.091 322.094 234.091C320.491 234.091 319.105 234.489 317.935 235.284C316.776 236.068 315.884 237.091 315.259 238.352C314.634 239.614 314.321 240.966 314.321 242.409V244.727C314.321 246.705 314.662 248.381 315.344 249.756C316.037 251.119 316.997 252.159 318.224 252.875C319.452 253.58 320.878 253.932 322.503 253.932C323.56 253.932 324.514 253.784 325.366 253.489C326.23 253.182 326.974 252.727 327.599 252.125C328.224 251.511 328.707 250.75 329.048 249.841L332.935 250.932C332.526 252.25 331.838 253.409 330.872 254.409C329.906 255.398 328.713 256.17 327.293 256.727C325.872 257.273 324.276 257.545 322.503 257.545ZM339.463 257V230.818H343.349V234.773H343.622C344.099 233.477 344.963 232.426 346.213 231.619C347.463 230.812 348.872 230.409 350.44 230.409C350.736 230.409 351.105 230.415 351.548 230.426C351.991 230.437 352.327 230.455 352.554 230.477V234.568C352.418 234.534 352.105 234.483 351.616 234.415C351.139 234.335 350.634 234.295 350.099 234.295C348.827 234.295 347.69 234.562 346.69 235.097C345.702 235.619 344.918 236.347 344.338 237.278C343.77 238.199 343.486 239.25 343.486 240.432V257H339.463ZM357.868 257V222.091H361.891V234.977H362.232C362.527 234.523 362.936 233.943 363.459 233.239C363.993 232.523 364.754 231.886 365.743 231.33C366.743 230.761 368.095 230.477 369.8 230.477C372.004 230.477 373.947 231.028 375.629 232.131C377.311 233.233 378.624 234.795 379.567 236.818C380.51 238.841 380.982 241.227 380.982 243.977C380.982 246.75 380.51 249.153 379.567 251.188C378.624 253.21 377.317 254.778 375.646 255.892C373.976 256.994 372.05 257.545 369.868 257.545C368.186 257.545 366.839 257.267 365.828 256.71C364.817 256.142 364.038 255.5 363.493 254.784C362.947 254.057 362.527 253.455 362.232 252.977H361.754V257H357.868ZM361.822 243.909C361.822 245.886 362.112 247.631 362.692 249.142C363.271 250.642 364.118 251.818 365.232 252.67C366.345 253.511 367.709 253.932 369.322 253.932C371.004 253.932 372.408 253.489 373.533 252.602C374.669 251.705 375.521 250.5 376.089 248.989C376.669 247.466 376.959 245.773 376.959 243.909C376.959 242.068 376.675 240.409 376.107 238.932C375.55 237.443 374.703 236.267 373.567 235.403C372.442 234.528 371.027 234.091 369.322 234.091C367.686 234.091 366.311 234.506 365.197 235.335C364.084 236.153 363.243 237.301 362.675 238.778C362.107 240.244 361.822 241.955 361.822 243.909ZM388.788 266.818C388.107 266.818 387.499 266.761 386.964 266.648C386.43 266.545 386.061 266.443 385.857 266.341L386.879 262.795C387.857 263.045 388.72 263.136 389.47 263.068C390.22 263 390.885 262.665 391.464 262.062C392.055 261.472 392.595 260.511 393.084 259.182L393.834 257.136L384.152 230.818H388.516L395.743 251.682H396.016L403.243 230.818H407.607L396.493 260.818C395.993 262.17 395.374 263.29 394.635 264.176C393.896 265.074 393.038 265.739 392.061 266.17C391.095 266.602 390.004 266.818 388.788 266.818Z" fill="black"/>
</g>
<defs>
<linearGradient id="paint0_linear_10_58" x1="136.999" y1="168.789" x2="242.538" y2="168.789" gradientUnits="userSpaceOnUse">
<stop stop-color="#575757"/>
<stop offset="1"/>
</linearGradient>
<linearGradient id="paint1_linear_10_58" x1="168.383" y1="89.7503" x2="307.902" y2="89.7503" gradientUnits="userSpaceOnUse">
<stop stop-color="#666666"/>
<stop offset="1"/>
</linearGradient>
<linearGradient id="paint2_linear_10_58" x1="265.364" y1="111.796" x2="360.488" y2="111.796" gradientUnits="userSpaceOnUse">
<stop stop-color="#616161"/>
<stop offset="1"/>
</linearGradient>
<clipPath id="clip0_10_58">
<rect width="500" height="300" fill="white"/>
</clipPath>
</defs>
</svg>
